<svg id="visual" viewBox="0 0 1920 1080" width="1920" height="1080" xmlns="http://www.w3.org/2000/svg" xmlns:xlink="http://www.w3.org/1999/xlink" version="1.1"><rect x="0" y="0" width="1920" height="1080" fill="#fffef1"></rect><defs><linearGradient id="grad1_0" x1="43.8%" y1="0%" x2="100%" y2="100%"><stop offset="14.444444444444446%" stop-color="#fffef1" stop-opacity="1"></stop><stop offset="85.55555555555554%" stop-color="#fffef1" stop-opacity="1"></stop></linearGradient></defs><defs><linearGradient id="grad2_0" x1="0%" y1="0%" x2="56.3%" y2="100%"><stop offset="14.444444444444446%" stop-color="#fffef1" stop-opacity="1"></stop><stop offset="85.55555555555554%" stop-color="#fffef1" stop-opacity="1"></stop></linearGradient></defs><g transform="translate(1920, 0)"><path d="M0 972C-97.7 889.3 -195.4 806.7 -319.9 772.4C-444.4 738 -595.8 752.1 -687.3 687.3C-778.9 622.5 -810.6 479 -848.1 351.3C-885.6 223.6 -928.8 111.8 -972 0L0 0Z" fill="#f9a424"></path></g><g transform="translate(0, 1080)"><path d="M0 -972C134.8 -948.3 269.5 -924.5 350.2 -845.3C430.8 -766.2 457.2 -631.5 553.7 -553.7C650.1 -475.8 816.6 -454.8 898 -372C979.4 -289.2 975.7 -144.6 972 0L0 0Z" fill="#f9a424"></path></g></svg>